<svg width="20" height="20" viewBox="0 0 20 20" fill="none" xmlns="http://www.w3.org/2000/svg">
<g clip-path="url(#clip0_1297_4879)">
<path d="M14.3067 12.5C13.873 13.2595 13.2463 13.8908 12.4899 14.3299C11.7336 14.769 10.8746 15.0003 10 15.0003C9.12543 15.0003 8.26642 14.769 7.51007 14.3299C6.75373 13.8908 6.12696 13.2595 5.69333 12.5H2.5C2.16848 12.5 1.85054 12.6317 1.61612 12.8661C1.3817 13.1005 1.25 13.4185 1.25 13.75V17.5C1.25 17.8315 1.3817 18.1495 1.61612 18.3839C1.85054 18.6183 2.16848 18.75 2.5 18.75H17.5C17.8315 18.75 18.1495 18.6183 18.3839 18.3839C18.6183 18.1495 18.75 17.8315 18.75 17.5V13.75C18.75 13.4185 18.6183 13.1005 18.3839 12.8661C18.1495 12.6317 17.8315 12.5 17.5 12.5H14.3067Z" stroke="#2D64FA" stroke-width="1.5" stroke-linecap="round" stroke-linejoin="round"/>
<path d="M10 1.25V10" stroke="#2D64FA" stroke-width="1.5" stroke-linecap="round" stroke-linejoin="round"/>
<path d="M13.125 3.75L10 1.25L6.875 3.75" stroke="#2D64FA" stroke-width="1.5" stroke-linecap="round" stroke-linejoin="round"/>
</g>
<defs>
<clipPath id="clip0_1297_4879">
<rect width="20" height="20" fill="white"/>
</clipPath>
</defs>
</svg>
