<svg width="24" height="24" viewBox="0 0 24 24" fill="none" xmlns="http://www.w3.org/2000/svg">
<g clip-path="url(#clip0_597_7171)">
<path d="M6.90709 7.71456C8.80064 7.71456 10.3357 6.17954 10.3357 4.28599C10.3357 2.39244 8.80064 0.857422 6.90709 0.857422C5.01354 0.857422 3.47852 2.39244 3.47852 4.28599C3.47852 6.17954 5.01354 7.71456 6.90709 7.71456Z" stroke="white" stroke-width="1.5" stroke-linecap="round" stroke-linejoin="round"/>
<path d="M9.79817 18.0426L9.16057 23.1434H4.67396L3.81682 16.2863H0.907227V13.7148C0.907227 12.1235 1.53937 10.5974 2.66458 9.47221C3.7898 8.34699 5.31593 7.71484 6.90723 7.71484C8.49852 7.71484 10.0246 8.34699 11.1499 9.47221C12.0153 10.3377 12.5891 11.4403 12.8079 12.6274" stroke="white" stroke-width="1.5" stroke-linecap="round" stroke-linejoin="round"/>
<path d="M12.5054 17.0927C12.5054 16.2573 13.1826 15.5801 14.018 15.5801H21.5811C22.4165 15.5801 23.0936 16.2573 23.0936 17.0927V21.6306C23.0936 22.466 22.4165 23.1431 21.5811 23.1431H14.018C13.1826 23.1431 12.5054 22.466 12.5054 21.6306V17.0927Z" stroke="white" stroke-width="1.5" stroke-linecap="round" stroke-linejoin="round"/>
<path d="M15.73 15.5801V14.4643C15.73 13.5175 16.4975 12.75 17.4443 12.75H18.1516C19.0982 12.75 19.8659 13.5175 19.8659 14.4643V15.5801" stroke="white" stroke-width="1.5" stroke-linecap="round" stroke-linejoin="round"/>
</g>
<defs>
<clipPath id="clip0_597_7171">
<rect width="24" height="24" fill="white"/>
</clipPath>
</defs>
</svg>
