<svg width="24" height="24" viewBox="0 0 24 24" fill="none" xmlns="http://www.w3.org/2000/svg">
<g clip-path="url(#clip0_597_7163)">
<path d="M14.5053 8.14293V2.73318C14.5053 1.77167 13.7258 0.992188 12.7643 0.992188H4.55203C3.5905 0.992188 2.81104 1.77167 2.81104 2.73318V23.0077" stroke="white" stroke-width="1.5" stroke-linecap="round" stroke-linejoin="round"/>
<path d="M0.88916 23.0088H9.40701" stroke="white" stroke-width="1.5" stroke-linecap="round" stroke-linejoin="round"/>
<path d="M2.81104 5.46387H7.02838" stroke="white" stroke-width="1.5" stroke-linecap="round" stroke-linejoin="round"/>
<path d="M2.81104 9.85645H9.40701" stroke="white" stroke-width="1.5" stroke-linecap="round" stroke-linejoin="round"/>
<path d="M17.9665 17.1976C19.6237 17.1976 20.967 15.8541 20.967 14.1969C20.967 12.5397 19.6237 11.1963 17.9665 11.1963C16.3092 11.1963 14.9658 12.5397 14.9658 14.1969C14.9658 15.8541 16.3092 17.1976 17.9665 17.1976Z" stroke="white" stroke-width="1.5" stroke-linecap="round" stroke-linejoin="round"/>
<path d="M12.8208 23.0073C12.8299 22.1299 13.0598 21.2692 13.4889 20.5055C14.3933 18.8961 16.1302 17.8742 17.9667 17.8701C19.803 17.8742 21.5399 18.8961 22.4444 20.5055C22.8735 21.2692 23.1034 22.1299 23.1124 23.0073" stroke="white" stroke-width="1.5" stroke-linecap="round" stroke-linejoin="round"/>
</g>
<defs>
<clipPath id="clip0_597_7163">
<rect width="24" height="24" fill="white"/>
</clipPath>
</defs>
</svg>
