<svg width="24" height="24" viewBox="0 0 24 24" fill="none" xmlns="http://www.w3.org/2000/svg">
    <g clip-path="url(#clip0_541_2739)">
        <path d="M12.3115 6.4231L18.9247 17.8772" stroke="black" stroke-width="1.5" stroke-linecap="round" stroke-linejoin="round"/>
        <path d="M18.5785 17.2756L2.27654 21.0609L1.23242 19.2523L12.6616 7.0271" stroke="black" stroke-width="1.5" stroke-linecap="round" stroke-linejoin="round"/>
        <path d="M5.82324 20.2364L6.72089 21.7911C7.04654 22.3492 7.58056 22.7552 8.20548 22.9196C8.83039 23.0838 9.49502 22.9933 10.0531 22.6676C10.6113 22.342 11.0172 21.808 11.1816 21.183C11.346 20.5581 11.2554 19.8935 10.9297 19.3353L10.786 19.0864" stroke="black" stroke-width="1.5" stroke-linecap="round" stroke-linejoin="round"/>
        <path d="M12.7617 3.14907V1.00024" stroke="black" stroke-width="1.5" stroke-linecap="round" stroke-linejoin="round"/>
        <path d="M20.9941 11.3823H23.143" stroke="black" stroke-width="1.5" stroke-linecap="round" stroke-linejoin="round"/>
        <path d="M2.38086 11.3823H4.52968" stroke="black" stroke-width="1.5" stroke-linecap="round" stroke-linejoin="round"/>
        <path d="M5.41895 4.04102L6.9384 5.56047" stroke="black" stroke-width="1.5" stroke-linecap="round" stroke-linejoin="round"/>
        <path d="M18.583 5.56023L20.1024 4.04077" stroke="black" stroke-width="1.5" stroke-linecap="round" stroke-linejoin="round"/>
    </g>
    <defs>
        <clipPath id="clip0_541_2739">
            <rect width="24" height="24" fill="white"/>
        </clipPath>
    </defs>
</svg>
